<?xml version="1.0" encoding="UTF-8"?>
<svg id="Layer_1" data-name="Layer 1" xmlns="http://www.w3.org/2000/svg" viewBox="0 0 1080 1080">
  <defs>
    <style>
      .cls-1 {
        fill: #fff;
      }

      .cls-2 {
        fill: #666;
      }
    </style>
  </defs>
  <g id="accomodation">
    <polygon class="cls-1" points="809.38 319.77 809.38 367.08 220.12 367.08 220.12 317.66 512.93 148.62 809.38 319.77"/>
    <rect class="cls-2" x="300.08" y="439.22" width="427.6" height="111.25"/>
    <path class="cls-2" d="m353.97,312.76v54.32h-20.86v20.86h20.86v36.5h26.07v-36.5h121.67v36.5h27.81v-36.5h119.94v36.5h27.81v-111.68h-323.31Zm26.07,54.32v-9.13h121.67v9.13h-121.67Zm149.49,0v-9.13h119.94v9.13h-119.94Z"/>
    <rect class="cls-1" x="390.47" y="367.95" width="99.08" height="60.84"/>
    <polygon points="501.71 357.96 501.71 424.44 480.86 424.44 480.86 378.81 400.9 378.81 400.9 424.44 380.04 424.44 380.04 357.96 501.71 357.96"/>
    <rect class="cls-1" x="539.95" y="367.95" width="99.08" height="60.84"/>
    <polygon points="649.46 357.96 649.46 424.44 628.6 424.44 628.6 378.81 550.38 378.81 550.38 424.44 529.53 424.44 529.53 357.96 649.46 357.96"/>
    <polygon points="830.24 307.72 830.24 724.28 809.38 724.28 809.38 387.94 677.27 387.94 677.27 367.08 809.38 367.08 809.38 319.77 512.93 148.62 220.12 317.66 220.12 367.08 333.11 367.08 333.11 387.94 220.12 387.94 220.12 724.28 199.26 724.28 199.26 305.62 220.12 293.57 492.07 136.56 512.93 124.51 533.8 136.56 809.38 295.68 830.24 307.72"/>
    <path d="m698.13,307.08v60h-20.86v-54.32h-323.31v111.68h-20.86v-115.45c0-9.44,7.65-17.09,17.09-17.09h332.76c8.38,0,15.17,6.8,15.17,15.17Z"/>
    <rect x="677.27" y="387.94" width="20.86" height="36.5"/>
    <path d="m286.18,440.89v160.85h20.86v-39.98h413.69v39.98h20.86v-160.85c0-9.08-7.36-16.45-16.45-16.45h-422.51c-9.08,0-16.45,7.36-16.45,16.45Zm37.31,4.41h380.8c9.08,0,16.45,7.36,16.45,16.45v23.53h-413.69v-23.53c0-9.08,7.36-16.45,16.45-16.45Zm-16.45,95.6v-34.76h413.69v34.76h-413.69Z"/>
    <path d="m96.8,793.15c29.78-20.32,57.59-40.32,86.43-58.68,29.19-18.58,54.26-41.14,77.8-66.54,31.21-33.67,72.18-49.6,117.66-53.46,37.63-3.19,74.38,2.59,107.81,19.61,37.16,18.92,76.05,26.43,117.04,27.93,35.15,1.29,70.3,3.33,105.33,6.46,11.06.99,23.52,4.19,31.98,10.73,6.89,5.33,11.81,17.05,12.08,26.1.33,11.3-9.49,18.72-20.58,21.71-6.36,1.71-13.14,2.33-19.76,2.48-67.43,1.56-134.36-3.59-200.83-15.07-7.34-1.27-15.09-.17-22.66-.17-.14,1.7-.28,3.39-.42,5.09,11.48,2.2,22.91,4.72,34.45,6.56,62.6,9.93,125.59,14.63,188.98,13.47,14.98-.28,29.48-2.36,40.59-13.79,3.04-3.13,6.96-7.06,7.27-10.88,1.34-16.88,14.49-22.09,26.5-28.31,52.15-27.01,104.27-54.06,156.71-80.49,16.33-8.23,28.16-5.55,35.68,5.49,7.76,11.4,5.33,24.05-8.84,36.17-48.38,41.37-96.46,83.13-146.11,122.92-16.3,13.07-36.26,22.56-55.89,30.28-42.63,16.78-85.82,32.32-129.41,46.41-18.73,6.05-38.95,9.49-58.64,10.17-53.39,1.83-106.88.49-160.26,2.47-38.35,1.42-74.5,13.19-107.3,33.43-32.5,20.05-64.41,41.05-97.59,62.28-38.34-52.74-77.28-106.3-118.01-162.34Z"/>
  </g>
</svg>