<?xml version="1.0" encoding="UTF-8"?>
<svg id="Layer_1" data-name="Layer 1" xmlns="http://www.w3.org/2000/svg" viewBox="0 0 1080 1080">
  <defs>
    <style>
      .cls-1 {
        fill: #8c6239;
      }

      .cls-2 {
        fill: #fff;
      }

      .cls-3 {
        fill: #4d4d4d;
      }

      .cls-4 {
        fill: #42210b;
      }

      .cls-5 {
        fill: gray;
      }
    </style>
  </defs>
  <g id="agency">
    <g>
      <path d="m687.82,471.53c-15.77-7-35.64-20.64-52.27-33.04l-68.28,339.01c103.82-3.97,200.76-29.14,284.37-70.3-13.29-65.71-25.09-125.77-26.47-157.73-3.7-85.35-103.89-63.08-137.34-77.94Z"/>
      <path class="cls-2" d="m457.65,435.39l68.55,342.46c.64,0,1.26.02,1.86.02l-18.41-187.57,27.62-53.6-27.62-34.2,36.97-32.65,36.94,32.65-27.6,34.2,27.6,53.6-18.36,187.23c.69,0,1.39,0,2.06-.02l68.28-339.01s-82.56,72.66-177.89-3.1Z"/>
      <path d="m583.56,502.49l-36.94-32.65-36.97,32.65,27.62,34.2-27.62,53.6,18.41,187.57c3.37.07,6.67.2,10.06.2,2.84,0,5.65-.13,8.5-.16,6.22-.06,12.43-.13,18.58-.38l18.36-187.23-27.6-53.6,27.6-34.2Z"/>
      <g>
        <path d="m457.67,435.41h0s0-.02-.02-.02l.02.02Z"/>
        <path d="m388.42,471.53c-36.34,3.72-133.64-7.4-137.31,77.94-1.39,31.96-13.2,92.02-26.47,157.78,88.19,43.34,191.28,68.86,301.56,70.6l-68.54-342.44c-13.49,15.15-35.9,32.73-69.25,36.12Z"/>
        <path d="m669.71,224.66s3.43-17.89,2.99-41.44l.11.06c-.04-.73-.15-1.31-.18-2.04-.36-12.94-1.82-27.39-5.76-41.59-13.77-58.18-45.86-81.24-45.86-81.24-66.8,5.07-151.49,0-151.49,0,0,0-69.57,61.83-60.73,170.09,0,0-16.03,3.06-10.21,31.76,5.47,27.09,15.74,35.63,23.47,36.72,7,.98,16.65,37.67,30.96,57.52l-.06.02s2.17,4.45,9.86,12.32c6.38,10.83,9.83,29.03,10.76,45.82-1.06,2.1-6.16,11.8-15.9,22.75,95.34,75.74,177.87,3.08,177.87,3.08-4.45-8.44-9.3-19.96-10.14-28.99-1.68-19.4-1.15-39.51,6.86-45.87,2.74-2.08,5.32-5.29,7.86-9.12,15.19-22.57,27.37-69.12,27.37-69.12,0,0,16.3-12.73,16.3-37.01s-14.08-23.72-14.08-23.72Z"/>
      </g>
    </g>
    <g>
      <path class="cls-1" d="m887.76,796.43s-119.36,18.81-152.04,45.57c-32.68,26.73-194.62-65.39-106.96-108.46,87.66-43.1,211.83-61.68,211.83-61.68l47.17,124.56Z"/>
      <path class="cls-4" d="m183.89,736.97s109.32,98.61,123.71,120.19c14.43,21.55,274.21,233.8,299.74,125.05,0,0,55.29,1.42,56.72-47.46,0,0,42.71-6.98,44.14-55.84,0,0,42.44-7.09,44.6-48.1,0,0-165.21-64.2-226.44-215.56,0,0-209.03-24.87-227.79-36.36l-114.68,158.09Z"/>
      <path class="cls-1" d="m697.84,751.93s-83.94,35.11-141.89-62.95c0,0-92.11,86.16-144.11,38.6l118.84-123.29s35.03-17.28,83.21,0c71.82,25.74,198.6-18.58,198.6-18.58l45.05,138.17-159.7,28.05Z"/>
      <path class="cls-1" d="m377.24,907.82c-7.61,11.74-25.67,13.59-40.24,4.09h0c-14.57-9.52-20.18-26.72-12.52-38.5l30.42-46.73c7.69-11.77,25.72-13.56,40.24-4.08h0c14.57,9.52,20.26,26.72,12.58,38.5l-30.48,46.71Z"/>
      <path class="cls-1" d="m532.04,1011.39c-7.69,11.78-25.72,13.63-40.31,4.14h0c-14.56-9.52-20.11-26.75-12.47-38.53l30.38-46.72c7.66-11.77,25.7-13.59,40.29-4.04h0c14.57,9.47,20.18,26.68,12.52,38.43l-30.42,46.72Z"/>
      <path class="cls-1" d="m425.57,947.99c-9.03,13.95-28.26,17.55-42.8,8.09h0c-14.54-9.49-18.99-28.49-9.94-42.44l36.05-55.35c9.03-13.92,28.21-17.51,42.8-8.02h0c14.56,9.52,19.02,28.49,9.98,42.46l-36.09,55.27Z"/>
      <path class="cls-1" d="m478.41,982.41c-9.06,13.92-28.28,17.54-42.88,8h0c-14.49-9.47-18.99-28.48-9.96-42.43l36.09-55.27c9.05-13.97,28.26-17.55,42.84-8.1h0c14.52,9.52,19.04,28.52,9.94,42.49l-36.02,55.3Z"/>
      <polygon class="cls-5" points="890.45 808.22 854.02 821.06 766.33 573.16 802.74 560.27 890.45 808.22"/>
      <polygon class="cls-3" points="981.55 795.55 890.21 827.86 790.23 545.16 881.62 512.83 981.55 795.55"/>
      <polygon class="cls-5" points="185.08 785.61 218.14 805.59 354.5 580.75 321.48 560.75 185.08 785.61"/>
      <polygon class="cls-3" points="98.45 754.64 181.3 804.88 336.86 548.53 253.98 498.2 98.45 754.64"/>
    </g>
  </g>
</svg>