<?xml version="1.0" encoding="UTF-8"?>
<svg id="Layer_1" data-name="Layer 1" xmlns="http://www.w3.org/2000/svg" viewBox="0 0 1080 1080">
  <g id="booking">
    <path d="m965.77,835.58l.53,1.68-1.02.83c-5.42,32.35-32.66,51.69-61.1,74.85-28.5,23.2-59.71,35.26-80.26,37.71,0,0-23.76,5.07-29.24,4.13-7.02-1.22-23.75-.4-43.23,1.84-6.06,1.18-22.25-.46-28.61.35-38.02-5.25-104.25-19.15-133.37-25.79-17.36-3.93-32.54.57-42.81,1.68-7.74.87-15.05,1.64-21.65-.78-15.17-5.51-20.15-25.82-18.32-42.39.26-2.55.69-5.07,1.27-7.48,1.85-7.49,7.98-14.62,18.26-21.19,19.5-12.5,55.3-23.37,83.18-18.97,11.95,1.89,24.86,3.52,36.31,4.8,0,0-5.86-7.29-13.98-17.42-5.92-7.39-13.04-16.3-19.96-25-13.88-17.46-26.94-34.08-27.81-35.87l-3.15-4.13-19.08-25-61.1-80.08-37.83-49.56c-16.1-19.78-13.12-48.88,6.68-64.99l2.03-1.65c15.59-12.69,38.51-10.35,51.2,5.24l46.98,57.72,65.31,80.21c.15-12.8,4.2-25.72,15.17-36.3,14.64-14.11,31.52-17.08,47.44-9.35,2.38-8.96,8.67-21.02,24.61-29.97,13.21-7.41,27.21-6.18,39.92,3.03l.48-.44,1.57-1.4c4.53-8.68,11.76-16.51,22.92-20.47,8.68-3.07,16.75-2.17,23.72.49,11.69,4.48,20.31,13.93,23.56,17.94l1.44,1.77,75.15,92.3c3.8,4.67,24.05,29.54,29.54,36.28,22.19,27.27,30.19,61.76,25.25,95.38Z"/>
    <g>
      <rect x="241.83" y="170.43" width="438" height="25"/>
      <path d="m835.83,193.62v418l-1.44-1.77c-3.25-4.01-11.87-13.46-23.56-17.94v-229.98H137.83v377.5h423.9l19.08,25H137.83v40h473.94c6.92,8.7,14.04,17.61,19.96,25H136.02c-12.81,0-23.19-10.38-23.19-23.19V193.62c0-12.81,10.38-23.19,23.19-23.19h97.81v25h-96v141.5h673v-141.5h-123v-25h124.81c12.81,0,23.19,10.38,23.19,23.19Z"/>
    </g>
    <g>
      <path d="m744.83,260.43c0,25.36-20.64,46-46,46s-46-20.64-46-46c0-18.59,11.09-34.64,27-41.89v50.85c1.75,3.69,4.54,6.8,8,8.93,3.2,1.97,6.97,3.11,11,3.11,11.6,0,21-9.4,21-21s-9.4-21-21-21c-4.03,0-7.8,1.14-11,3.11v-26.78c3.52-.87,7.21-1.33,11-1.33,25.36,0,46,20.64,46,46Z"/>
      <rect x="687.83" y="122.93" width="23.5" height="150" rx="11.75" ry="11.75"/>
    </g>
    <g>
      <path d="m298.83,260.43c0,25.36-20.64,46-46,46s-46-20.64-46-46c0-18.59,11.09-34.64,27-41.89v50.85c1.75,3.69,4.54,6.8,8,8.93,3.2,1.97,6.97,3.11,11,3.11,11.6,0,21-9.4,21-21s-9.4-21-21-21c-4.03,0-7.8,1.14-11,3.11v-26.78c3.52-.87,7.21-1.33,11-1.33,25.36,0,46,20.64,46,46Z"/>
      <rect x="241.83" y="122.93" width="23.5" height="150" rx="11.75" ry="11.75"/>
    </g>
    <path d="m455.79,655.25c-32.48-12.85-55.54-44.36-55.95-81.32-.53-47.71,37.37-87.63,85.04-89.44,50.45-1.92,91.95,38.41,91.95,88.43v.1c0,5.8,4.37,10.66,10.14,11.26l2.14.22c6.8.71,12.72-4.62,12.72-11.46v-.13c0-64.11-53.44-115.99-118.12-113.41-59,2.35-106.68,50.23-108.81,109.23-1.84,51.1,30.3,95.11,75.56,111.17,6.27,2.23,12.86-2.47,12.86-9.13v-4.42c0-4.91-2.98-9.33-7.54-11.14Z"/>
  </g>
</svg>