<?xml version="1.0" encoding="UTF-8"?>
<svg id="Layer_1" data-name="Layer 1" xmlns="http://www.w3.org/2000/svg" viewBox="0 0 1080 1080">
  <g id="events">
    <rect x="176.95" y="323.42" width="728.32" height="17.81"/>
    <path d="m185.86,694.44V247.74h-16.92v53.97l-48.97,52.48-49.86-53.43v-43.23h-16.92v592.98h16.92v-50.38l49.86-53.43,48.97,52.48v51.33h16.92v-156.07Zm-20.1-266.39l-45.35,48.6-45.79-49.07,45.35-48.6,45.79,49.07Zm-.03,121.95l-45.76,49.03-45.32-48.56,45.76-49.03,45.32,48.56Zm-95.63-224.45l38.29,41.04-38.29,41.04v-82.07Zm0,121.98l38.74,41.51-38.74,41.52v-83.03Zm0,122.87l38.29,41.04-38.29,41.04v-82.07Zm0,204.94v-82.07l38.29,41.04-38.29,41.04Zm4.1-102.47l45.76-49.04,45.76,49.04-45.76,49.03-45.76-49.03Zm94.73,101.52l-37.4-40.08,37.4-40.08v80.17Zm0-122.87l-37.4-40.08,37.4-40.08v80.17Zm0-122.87l-36.96-39.61,36.96-39.6v79.22Zm0-121.98l-37.4-40.08,37.4-40.08v80.17Z"/>
    <path d="m1026.36,694.44V247.74h-16.92v53.97l-48.97,52.48-49.86-53.43v-43.23h-16.92v592.98h16.92v-50.38l49.86-53.43,48.97,52.48v51.33h16.92v-156.07Zm-20.1-266.39l-45.35,48.6-45.79-49.07,45.35-48.6,45.79,49.07Zm-.03,121.95l-45.76,49.03-45.32-48.56,45.76-49.03,45.32,48.56Zm-95.63-224.45l38.29,41.04-38.29,41.04v-82.07Zm0,121.98l38.74,41.51-38.74,41.52v-83.03Zm0,122.87l38.29,41.04-38.29,41.04v-82.07Zm0,204.94v-82.07l38.29,41.04-38.29,41.04Zm4.1-102.47l45.76-49.04,45.76,49.04-45.76,49.03-45.76-49.03Zm94.73,101.52l-37.4-40.08,37.4-40.08v80.17Zm0-122.87l-37.4-40.08,37.4-40.08v80.17Zm0-122.87l-36.96-39.61,36.96-39.6v79.22Zm0-121.98l-37.4-40.08,37.4-40.08v80.17Z"/>
    <path d="m289.79,382.83c-2.41-2.41-5.22-4.16-8.22-5.26v-44.8h-17.36v45.45c-2.41,1.1-4.66,2.64-6.64,4.62-8.9,8.9-8.9,23.32,0,32.22l28.29,28.29,32.22-32.22-28.29-28.29Z"/>
    <path d="m472.03,382.83h0c-2.33-2.33-5.04-4.04-7.93-5.15v-44.91h-17.36v45.32c-2.51,1.11-4.87,2.68-6.93,4.74l-28.29,28.29,32.22,32.22,28.29-28.29c8.9-8.9,8.9-23.32,0-32.22Z"/>
    <path d="m642.86,382.62c-2.46-2.79-5.46-4.83-8.7-6.12v-43.73h-17.36v43.97c-2.17.93-4.23,2.21-6.09,3.85h0c-9.44,8.32-10.35,22.72-2.03,32.16l26.45,30.01,34.18-30.13-26.45-30.01Z"/>
    <path d="m823.72,381.94h0c-2.33-2.33-5.04-4.04-7.93-5.15v-44.02h-17.36v44.43c-2.51,1.11-4.87,2.68-6.93,4.74l-28.29,28.29,32.22,32.22,28.29-28.29c8.9-8.9,8.9-23.32,0-32.22Z"/>
    <g>
      <circle cx="296.71" cy="653.3" r="17.36"/>
      <path d="m245.96,611.45v173.18h100.61v-173.18h-100.61Zm50.75,15.58c14.48,0,26.27,11.78,26.27,26.27s-11.78,26.27-26.27,26.27-26.27-11.78-26.27-26.27,11.78-26.27,26.27-26.27Zm0,141.12c-20.13,0-36.5-16.38-36.5-36.5s16.38-36.5,36.5-36.5,36.5,16.38,36.5,36.5-16.38,36.5-36.5,36.5Z"/>
      <circle cx="296.71" cy="731.65" r="27.6"/>
    </g>
    <g>
      <circle cx="784.63" cy="653.3" r="17.36"/>
      <path d="m733.88,611.45v173.18h100.61v-173.18h-100.61Zm50.75,15.58c14.48,0,26.27,11.78,26.27,26.27s-11.78,26.27-26.27,26.27-26.27-11.78-26.27-26.27,11.78-26.27,26.27-26.27Zm0,141.12c-20.13,0-36.5-16.38-36.5-36.5s16.38-36.5,36.5-36.5,36.5,16.38,36.5,36.5-16.38,36.5-36.5,36.5Z"/>
      <circle cx="784.63" cy="731.65" r="27.6"/>
    </g>
    <rect x="15.8" y="793.53" width="284.92" height="127.32"/>
    <rect x="779.73" y="793.53" width="284.92" height="127.32"/>
    <rect x="314.07" y="793.53" width="453.2" height="155.81"/>
    <path d="m1062.05,236.61c-113.91-64.02-304.15-105.95-519.6-105.95S136.76,172.59,22.85,236.61c-2.54,1.42-5.04,2.87-7.5,4.31v62.47h1047.96v-66.07c-.42-.24-.85-.48-1.26-.71Zm-788.71,47.41c-19.79,0-35.84-16.04-35.84-35.84s16.04-35.84,35.84-35.84,35.84,16.04,35.84,35.84-16.04,35.84-35.84,35.84Zm182.52,0c-19.79,0-35.84-16.04-35.84-35.84s16.04-35.84,35.84-35.84,35.84,16.04,35.84,35.84-16.04,35.84-35.84,35.84Zm169.17,0c-19.79,0-35.84-16.04-35.84-35.84s16.04-35.84,35.84-35.84,35.84,16.04,35.84,35.84-16.04,35.84-35.84,35.84Zm181.63,0c-19.79,0-35.84-16.04-35.84-35.84s16.04-35.84,35.84-35.84,35.84,16.04,35.84,35.84-16.04,35.84-35.84,35.84Z"/>
  </g>
</svg>