<?xml version="1.0" encoding="UTF-8"?>
<svg id="Layer_1" data-name="Layer 1" xmlns="http://www.w3.org/2000/svg" viewBox="0 0 1080 1080">
  <defs>
    <style>
      .cls-1 {
        fill: #f2e5ee;
      }
    </style>
  </defs>
  <g id="fashion">
    <g>
      <path d="m339.55,235.8s5.21-16.51,2.61-39.11c-2.61-22.6-7.39-47.37,10-80.83,7.39-14.23,17.38-23.9,24.34-27.38,6.95-3.48,13.91-.87,13.91-.87,0,0,8.69-4.35,19.56-1.3,10.86,3.04,28.25,16.08,36.07,32.59,7.82,16.51,8.26,38.24,4.35,56.93-3.91,18.69-9.56,36.07-9.56,49.11s4.78,26.51,4.78,26.51c0,0-29.99,2.61-55.19-1.3-25.2-3.91-50.84-14.34-50.84-14.34Z"/>
      <path d="m512.95,583.46c-.87-5.21-1.74-20.86-2.17-27.38-.43-6.52-8.26-26.94-9.99-39.98-1.74-13.04-.87-33.03-4.35-59.54-3.48-26.51-12.17-41.72-12.6-56.49-.43-14.78,5.65-87.78,5.21-110.38s-4.78-30.42-23.9-36.07c-19.12-5.65-38.68-17.82-38.68-17.82,0,0,20.42,131.67,24.77,155.57,4.35,23.9,27.38,123.42,31.72,133.41,4.35,9.99,12.17,26.94,9.56,32.16-2.61,5.21-6.95,9.99-6.95,16.08s1.3,10.43.87,17.82c-.43,7.39-1.3,17.38-1.3,17.38l-1.74,1.74c-1.74,1.74,0,2.61,0,2.61l-4.35,1.74s-1.3,4.78,1.74,6.52c3.04,1.74,5.21.87,5.21.87,0,0-2.17,4.78.87,6.08,3.04,1.3,13.04-6.08,16.08-9.13,3.04-3.04,2.17-4.78,4.35-10.43,2.17-5.65,5.65-9.13,6.52-12.17.87-3.04,0-7.39-.87-12.6Zm-13.91,16.95c-.87,2.61-4.56,5.87-4.56,5.87,0,0,.22-3.69.43-8.47.22-4.78,2.17-10.43,2.17-10.43,0,0,1.96.43,2.17,2.17s.65,8.26-.22,10.86Z"/>
      <path d="m346.94,226.24s-14.78,7.82-27.38,10.86-22.6,3.91-26.07,22.16c-3.48,18.25-2.61,77.35-.43,95.6,2.17,18.25,4.78,41.72,4.78,54.32s-5.21,76.48-6.52,96.04c-1.3,19.56-3.91,53.02-5.65,64.32s2.17,27.38,3.04,29.12c.87,1.74,5.21,6.08,6.52,6.95,1.3.87,9.56,6.08,9.56,6.08,0,0,2.61,6.95,7.82,8.69,5.21,1.74,6.08-1.3,6.08-1.3,0,0,2.17-.87,1.3-3.91-.87-3.04-4.35-5.65-6.08-7.39-1.74-1.74-3.04-14.78-2.61-22.16.43-7.39.87-7.82,2.61-6.52,1.74,1.3,1.3,7.82,1.3,12.17s-2.17,9.56,1.74,11.3c3.91,1.74,8.69-21.73,4.35-34.33-4.35-12.6-9.56-22.16-10.86-36.5-1.3-14.34,19.56-113.42,18.69-120.37-.87-6.95-6.52-37.37-3.91-58.67.6-4.87,1.14-11.62,1.96-17.33,4.89-2.12,8.11-3.6,8.8-4.4,2.61-3.04,32.7-42.59,36.18-56.49,3.48-13.91,4.35-33.9,4.35-33.9l-29.55-14.34Z"/>
      <path d="m334.99,713.61s-18.25,27.38-28.03,57.36c-9.78,29.99-14.34,79.53-16.3,89.3-1.96,9.78-6.52,25.42-8.47,28.68-1.96,3.26.65,22.81-.65,32.59-1.3,9.78-9.13,39.11-4.56,48.24,4.56,9.13,13.04,6.19,21.51,6.19s21.51,8.8,20.21-.98c-1.3-9.78-5.21-20.21-7.17-41.72-1.96-21.51,2.61-46.93,3.26-54.76.65-7.82,13.71-39.15,20.21-56.06,8.2-21.31,14.34-39.76,20.21-51.5,5.87-11.73,16.3-26.73,20.21-33.9,3.91-7.17,5.21-19.56,5.21-19.56l-45.63-3.91Z"/>
      <path d="m410.61,713.61s-6.52,36.5-9.78,57.36c-3.26,20.86-1.3,38.46.65,58.67,1.96,20.21.65,43.67-1.3,52.15-1.96,8.47-13.69,24.77-18.25,33.9-4.56,9.13,1.3,22.81,5.87,27.38,4.56,4.56,6.52,6.52,7.17,16.95.65,10.43,1.3,26.07,14.34,30.64,13.04,4.56,29.33.65,30.64-3.91,1.3-4.56-13.69-10.43-18.25-29.33-4.56-18.9,1.3-67.79,5.87-88.65,4.56-20.86,23.47-73.66,23.47-106.25s-.65-58.01-.65-58.01l-39.76,9.13Z"/>
      <path class="cls-1" d="m343.03,227.98l8.26-5.21s19.56,15.21,42.59,18.25c23.03,3.04,29.99-8.69,29.99-8.69l5.65,3.48-4.35,7.82s14.37,21.16,23.47,33.9c15.21,21.29,22.6,29.55,23.47,47.37,1.34,27.43-16.25,32.42-17.82,60.19-.87,15.43,4.78,33.68,11.08,52.15,9.95,29.18,24.55,50.19,26.29,94.08,1.74,43.89-17.38,102.56-17.38,102.56l-14.34,88.22s-46.5,10.43-83.44,7.82c-36.94-2.61-50.41-12.17-50.41-12.17,0,0,4.78-62.14-1.74-107.77-6.52-45.63,1.3-98.21,6.08-115.16,4.78-16.95,16.08-60.62,15.64-78.44-.43-17.82-5.65-40.63-9.13-50.63-3.48-10-10-30.42-10-30.42,0,0,14.78-13.04,25.64-42.15s17.38-51.28,17.38-51.28l-26.94-13.91Z"/>
      <path class="cls-1" d="m284.47,881.95s4.63,5.69,14.01,7.01c10.43,1.47,15.97-1.79,15.97-1.79l-.98,7.66s-7.01,3.91-18.41.65c-11.41-3.26-13.2-6.36-13.2-6.36l2.61-7.17Z"/>
      <path class="cls-1" d="m275.81,965.48c.22,1.7.6,3.16,1.17,4.3,4.56,9.13,14.34,15.64,22.81,15.64s20.21-.65,18.9-10.43c-.32-2.4-.8-4.84-1.37-7.48-12.16-6.43-28.2-5.73-41.52-2.04Z"/>
      <path class="cls-1" d="m391.27,899.17s2.39,3.48,12.39,6.08c10,2.61,18.69,3.26,18.69,3.26l1.09-7.17s-9.13.43-16.51-2.39c-7.39-2.82-12.82-5.43-12.82-5.43l-2.82,5.65Z"/>
      <path class="cls-1" d="m383.01,913.51s-1.74,14.34.22,20.86c1.96,6.52,12.3,11.5,14.67,36.39.65,6.84,10.76,10.1,19.88,6.63,9.13-3.48,13.91-2.39,13.91-2.39,0,0,9.56,8.69,9.78,12.17.22,3.48-2.39,10.21-19.99,8.47s-23.47-8.47-26.51-21.29c-3.04-12.82-1.09-19.99-4.35-24.99-3.26-5-6.08-8.26-6.08-8.26l-.43,34.98-2.61-.22-3.69-36.94s-6.74-10.21-2.61-17.38c4.13-7.17,7.82-8.04,7.82-8.04Z"/>
    </g>
    <g>
      <path d="m804.33,436.07c-.34-7.41-5.39-36.74-7.41-47.86-2.02-11.12-14.83-137.85-14.83-137.85,0,0-3.37-5.73-18.2-14.49-14.83-8.76-22.24-9.77-34.38-16.18-12.13-6.4-20.22-14.49-20.22-14.49l-1.01-13.14s7.08-5.73,8.76-7.75c1.69-2.02,2.36-19.21,2.36-19.21,0,0,3.37.67,6.4-2.36,3.03-3.03,4.72-12.81,4.72-18.2s-3.37-4.04-3.37-4.04c0,0,8.76-34.04,8.76-41.79s-8.43-11.46-8.43-11.46c0,0,0-5.39-5.73-9.1-5.73-3.71-12.81-2.36-12.81-2.36,0,0-4.72-3.71-12.81-5.39-8.09-1.69-14.49,2.02-14.49,2.02,0,0-2.02-2.02-12.13-1.01-10.11,1.01-13.82,9.77-14.83,15.84-1.01,6.07-1.35,45.16-1.35,45.16l-2.7,1.01c-2.7,1.01-2.36,8.43-1.35,17.53,1.01,9.1,6.07,8.43,6.07,8.43l-1.01,21.91,2.36,5.06-5.06,27.3c-7.08,1.69-4.52-16.62-4.52-16.62,0,0-2.34.79-4.36,2.13-2.02,1.35-7.63,5.05-7.63,5.05,0,0-8.09,2.02-20.22,4.38-12.13,2.36-56.62,15.5-56.62,15.5,0,0-12.81,35.05-20.56,65.05-7.75,30-16.18,86.96-19.89,109.54-3.71,22.58-1.35,22.58,2.02,39.1,3.37,16.51,17.53,76.17,20.22,81.23,2.7,5.06,11.8,1.01,11.8,1.01,0,0,1.35,5.06,3.37,9.77,2.02,4.72,7.41,9.1,7.41,9.1,0,0-1.35,8.76-1.35,13.82s-1.69,47.86-2.36,67.07c-.67,19.21-.34,66.06-.34,88.3s8.09,69.77,12.13,97.07c4.04,27.3,7.75,73.47,8.76,97.07s1.01,45.16,1.01,45.16l7.08,2.36s-1.83,5.65-4.89,10.84-11.2,15.44-15.72,22.23c-4.52,6.78-3.84,11.56-4.34,13.89-.5,2.33,2.25,6.57,8.16,9.01,5.91,2.43,17.68,3.25,27.98.91,10.3-2.33,13.03-12.62,15.37-17.18,2.34-4.57,8.01-13.3,8.01-13.3,0,0,2.35.16,3.74-.42,1.39-.58,3.19-2.15,8.7-8.52,5.51-6.38,2.87-11.4,2.87-11.4,0,0-.34-2.02-.34-6.4s-.34-10.45-.34-10.45l3.03-2.36s0-37.07-2.36-58.31c-2.36-21.23-9.44-92.35-11.46-104.48-2.02-12.13-3.71-41.46-4.04-59.32-.34-17.86,6.07-41.46,15.84-69.09,9.77-27.64,16.85-61.68,16.85-61.68,0,0,7.41,19.89,8.76,28.31,1.35,8.43,1.35,27.64,1.69,40.78.34,13.14,2.36,47.19,3.37,54.6,1.01,7.41.34,30.33-1.01,44.15-1.35,13.82-5.73,61.34-5.06,78.53.67,17.19,0,95.04,1.69,110.21,1.69,15.17,12.13,15.17,12.13,15.17,0,0,0,2.02-.67,7.41-.67,5.39-2.36,16.85-3.03,25.28-.67,8.43,0,10.79,3.71,14.49,3.71,3.71,8.09,7.75,21.91,7.41,13.82-.34,22.92-6.4,24.6-9.77,1.69-3.37,3.03-5.73,2.7-13.14-.34-7.41-3.71-10.45-6.74-18.87-3.03-8.43-3.71-14.49-3.71-14.49l8.76-4.38s.67-2.36,1.35-7.41c.67-5.06,5.73-59.99,6.4-84.26.67-24.27,1.01-86.28,1.35-113.58.34-27.3,4.04-60.67,7.41-83.25,3.37-22.58,3.03-41.79,3.03-41.79,0,0,2.7,3.37,7.08,1.01,4.38-2.36,11.8-9.77,15.5-13.82,3.71-4.04,6.4-7.41,9.44-17.53,3.03-10.11,8.09-31.01,8.09-31.01l3.03,2.7s1.35-5.06,2.36-8.76c1.01-3.71,9.44-54.6,12.47-70.78,3.03-16.18,3.37-37.41,3.03-44.83Zm-234.24,31.68s-3.37-10.11-5.73-25.61c-2.36-15.5-2.02-26.63,0-42.47,2.02-15.84,7.08-51.23,7.08-51.23l1.35,6.07s.34,14.49,1.69,21.57c1.35,7.08,5.39,16.51,6.07,20.56.67,4.04.67,38.76.67,51.23s-11.12,19.89-11.12,19.89Zm186.04,46.51s-5.73-37.75-8.43-49.88c-2.7-12.13-5.73-31.01-3.37-50.22,2.36-19.21,10.45-43.48,10.45-43.48,0,0,1.01,20.22,1.69,28.31.67,8.09-2.36,16.85-2.02,26.29.34,9.44,2.7,29.32,5.06,51.9,2.36,22.58-3.37,37.07-3.37,37.07Z"/>
      <path class="cls-1" d="m655.36,194.75l-1.01,4.72s4.04,7.41,12.13,15.17c8.09,7.75,13.14,11.12,13.14,11.12,0,0,19.21-13.14,22.92-16.18s7.41-6.07,7.41-6.07c0,0,1.69,6.74,1.35,29.66-.34,22.92-4.04,67.41-16.51,101.11-12.47,33.7-26.29,65.39-26.29,65.39,0,0-7.41-38.09-11.8-61.34s-13.48-80.55-14.83-100.1c-1.35-19.55,2.36-34.71,2.36-34.71,0,0,4.38-11.12,6.74-11.8,2.36-.67,4.38,3.03,4.38,3.03Z"/>
      <path class="cls-1" d="m664.46,435.05s-2.7,17.53-5.39,25.28-5.73,14.49-5.73,14.49l15.5.67-4.38-40.44Z"/>
    </g>
  </g>
</svg>