<?xml version="1.0" encoding="UTF-8"?>
<svg id="Layer_1" data-name="Layer 1" xmlns="http://www.w3.org/2000/svg" viewBox="0 0 1080 1080">
  <defs>
    <style>
      .cls-1 {
        fill: #fff;
      }
    </style>
  </defs>
  <g id="promotion">
    <circle cx="149.88" cy="363.17" r="89"/>
    <path class="cls-1" d="m173.84,314.92l-51.06,11.67v13.3h.03s0,43.69,0,43.69c-2.74-1.17-6.4-1.12-9.9.42-5.68,2.53-8.75,8.02-6.87,12.29,1.89,4.27,8.03,5.66,13.72,3.16,4.05-1.8,6.74-5.11,7.28-8.41h.04v-.2c.1-.71.11-1.42,0-2.11v-49.87l42.45-10.14v44.06c-2.75-1.2-6.44-1.16-9.96.4-5.69,2.52-8.76,8.02-6.88,12.28,1.89,4.27,8.03,5.67,13.72,3.16,4.73-2.1,7.61-6.26,7.36-10.06h.03v-50.86h.03v-12.78Z"/>
    <g>
      <path d="m558.88,319.52c-99.02,56.4-205.5,91.38-319.52,105.82-9.25,13.28-21.38,24.42-35.48,32.49v147.99c11.75,1.04,23.41,2.28,35,3.74,114.18,14.38,220.79,49.48,320,105.87,22.72,12.9,45.05,26.93,67,42.09v-480.24c-21.94,15.22-44.27,29.3-67,42.24Z"/>
      <path d="m690.86,759.75c-.17,13.29-8.18,22.53-19.94,24.17-8.19,1.14-14.38-3.02-20.05-8.13-.77-.69-.85-2.43-.85-3.68-.06-16.17-.07-32.33-.02-48.5.02-3,.24-5.99.38-8.26v-17.28c-.13-.09-.27-.17-.4-.25v-430.49c0-7.72,3.65-12.68,11.11-15.08,12.93-4.15,24.79,2.33,28.55,15.42.2.68.37,1.38.52,2.09.42,2,.63,4.06.72,6.12v412.1c.02.09.02.18.02.27.09,23.84.27,47.67-.04,71.5Z"/>
      <path d="m149.88,472.17c-28,0-53.57-10.62-72.9-28.04-1.98,3.81-3.1,8.14-3.1,12.73v119.52c0,16.45,13.34,29.79,29.79,29.79h76.98c1.5,0,2.72-1.22,2.72-2.72v-136.55c-10.56,3.42-21.82,5.27-33.5,5.27Z"/>
      <path d="m338.98,798.63c-.78-14.97-1.75-29.93-2.61-44.9-1.98-34.43-4.05-68.85-5.8-103.29-.21-4.21-1.67-5.79-5.5-6.51-21.23-3.97-42.42-8.17-63.66-12.09-7.3-1.35-14.71-2.14-22.41-3.23-.14,1.66-.27,2.79-.33,3.92-1.14,19.12-2.24,38.25-3.41,57.37-1.67,27.27-3.41,54.53-4.99,81.81-.03.54.01,1.09.11,1.65l-.78,13.71h-.02c0,.15,0,.3,0,.45l-.34,5.95h.26c-.08,4.35-.15,8.68.17,12.99.72,9.77,10.94,22.61,27.52,22.54,17.83-.08,35.67.1,53.5-.11,3.74-.04,7.76-.61,11.15-2.09,12.02-5.24,17.84-15.04,17.15-28.17Z"/>
      <path d="m963.16,706.25c-.01,7.74-2.98,13.05-8.73,16.2-5.89,3.22-12.23,3.12-18.07-.56-26.85-16.91-53.66-33.89-80.47-50.86-26.12-16.54-52.24-33.07-78.34-49.65-8.17-5.19-10.89-16.25-5.99-23.86,5.47-8.5,16.26-10.92,24.88-5.46,47.93,30.31,95.83,60.66,143.74,90.99,5.02,3.18,9.99,6.44,15.03,9.6,5.41,3.4,7.69,8.45,7.96,13.61Z"/>
      <path d="m963.17,327.99c-.09,5.74-2.71,10.83-8.19,14.3-34.93,22.08-69.88,44.13-104.82,66.21-17.87,11.3-35.72,22.64-53.58,33.96-8.59,5.45-19.15,3.47-24.67-4.62-5.26-7.72-3.01-18.88,5.5-24.35,24.6-15.83,49.33-31.45,74.05-47.09,27.94-17.68,55.92-35.29,83.87-52.96,6.31-3.99,12.91-4.66,19.37-.97,5.52,3.15,8.38,8.31,8.47,15.53Z"/>
      <path d="m906.86,534.56c-30.99,0-61.99-.26-92.97.12-13.29.16-21.03-12.25-17.09-23.43,2.4-6.84,8.74-11.24,17.57-11.26,23.16-.07,46.32-.04,69.48-.04,38.49,0,76.98.05,115.47,0,8.17-.01,14.5,2.7,18.25,10.41,4.83,9.95-2.18,23.08-13.24,23.94-6.96.54-13.98.27-20.98.27-25.49.02-50.99,0-76.48,0Z"/>
      <path d="m710.04,594.32v-153.29c21.5,8.18,45.15,35.72,47.36,71.24,2.25,36.15-18.98,69.18-47.36,82.05Z"/>
    </g>
  </g>
</svg>